<svg width="32" height="32" viewBox="0 0 32 32" fill="none" xmlns="http://www.w3.org/2000/svg">
<g clip-path="url(#clip0_6_3)">
<path d="M30.5847 14.6501L17.3496 1.4156C16.5875 0.653213 15.3514 0.653213 14.5887 1.4156L11.8407 4.16431L15.3267 7.65033C16.1369 7.37651 17.0659 7.56026 17.7115 8.2062C18.3611 8.8561 18.5432 9.79301 18.2624 10.6062L21.6228 13.9662C22.436 13.6858 23.3735 13.8672 24.0228 14.5175C24.93 15.4247 24.93 16.8947 24.0228 17.8026C23.1149 18.7101 21.6449 18.7101 20.7367 17.8026C20.0544 17.1197 19.8855 16.1168 20.2316 15.2762L17.0976 12.1425V20.389C17.3186 20.4985 17.5274 20.6443 17.7115 20.8284C18.6187 21.7356 18.6187 23.2056 17.7115 24.1138C16.8043 25.0207 15.3333 25.0207 14.4267 24.1138C13.5195 23.2053 13.5195 21.7353 14.4267 20.8284C14.6511 20.6044 14.9107 20.4348 15.1878 20.3213V11.998C14.9107 11.8846 14.6517 11.7166 14.4267 11.491C13.7395 10.8041 13.5743 9.79532 13.9266 8.95144L10.4901 5.51424L1.4146 14.5887C0.652206 15.3518 0.652206 16.5879 1.4146 17.3503L14.6504 30.5851C15.4125 31.3475 16.6482 31.3475 17.4113 30.5851L30.5847 17.4116C31.3471 16.6493 31.3471 15.4125 30.5847 14.6501Z" fill="#F05133"/>
</g>
<defs>
<clipPath id="clip0_6_3">
<rect width="32" height="32" fill="white"/>
</clipPath>
</defs>
</svg>
